<svg width="20" height="20" viewBox="0 0 20 20" fill="none" xmlns="http://www.w3.org/2000/svg"><path d="M0.5 10C0.5 4.7533 4.75315 0.5 10 0.5C15.2469 0.5 19.5 4.7533 19.5 10C19.5 15.2467 15.2469 19.5 10 19.5C4.75315 19.5 0.5 15.2467 0.5 10Z" fill="white" stroke="#8CA0B3"/><mask id="mask0" mask-type="alpha" maskUnits="userSpaceOnUse" x="0" y="0" width="20" height="20"><path fill-rule="evenodd" clip-rule="evenodd" d="M0 10C0 4.47717 4.477 0 10 0C15.523 0 20 4.47717 20 10C20 15.5228 15.523 20 10 20C4.477 20 0 15.5228 0 10Z" fill="white"/></mask><g mask="url(#mask0)"><path fill-rule="evenodd" clip-rule="evenodd" d="M10.0007 4.66602C8.55233 4.66602 8.37066 4.67235 7.80166 4.69825C7.23399 4.72425 6.84632 4.81412 6.50732 4.94602C6.15632 5.08225 5.85899 5.26448 5.56233 5.56102C5.26566 5.85748 5.08366 6.15502 4.94699 6.50572C4.81466 6.84492 4.72466 7.23258 4.69899 7.80015C4.67366 8.36905 4.66699 8.55095 4.66699 9.99942C4.66699 11.4478 4.67332 11.6291 4.69932 12.198C4.72532 12.7658 4.81532 13.1533 4.94699 13.4924C5.08332 13.8432 5.26566 14.1408 5.56199 14.4372C5.85832 14.7339 6.156 14.9166 6.50666 15.0528C6.846 15.1847 7.23366 15.2746 7.80133 15.3006C8.37 15.3264 8.55166 15.3328 10.0003 15.3328C11.4487 15.3328 11.63 15.3264 12.199 15.3006C12.7667 15.2746 13.1547 15.1847 13.494 15.0528C13.8447 14.9166 14.1417 14.7339 14.438 14.4372C14.7347 14.1408 14.917 13.8432 15.0537 13.4925C15.1847 13.1533 15.2747 12.7656 15.3013 12.1981C15.327 11.6292 15.3337 11.4478 15.3337 9.99942C15.3337 8.55095 15.327 8.36915 15.3013 7.80028C15.2747 7.23248 15.1847 6.84492 15.0537 6.50582C14.917 6.15502 14.7347 5.85748 14.438 5.56102C14.1413 5.26435 13.8447 5.08212 13.4937 4.94602C13.1537 4.81412 12.766 4.72425 12.198 4.69825C11.6293 4.67235 11.448 4.66602 9.99933 4.66602H10.0007ZM9.52233 5.62715C9.66433 5.62692 9.82266 5.62715 10.0007 5.62715C11.425 5.62715 11.5937 5.63225 12.156 5.65782C12.676 5.68158 12.9583 5.76848 13.1463 5.84148C13.395 5.93815 13.5727 6.05372 13.759 6.24038C13.9457 6.42705 14.0613 6.60482 14.1583 6.85372C14.2313 7.04148 14.3183 7.32372 14.342 7.84372C14.3673 8.40595 14.373 8.57485 14.373 9.99818C14.373 11.4215 14.3673 11.5904 14.342 12.1526C14.318 12.6726 14.2313 12.9549 14.1583 13.1427C14.0617 13.3915 13.9457 13.5688 13.759 13.7554C13.5723 13.942 13.3953 14.0576 13.1463 14.1542C12.9583 14.2276 12.676 14.3142 12.156 14.338C11.5937 14.3636 11.425 14.3691 10.0007 14.3691C8.57666 14.3691 8.408 14.3636 7.84566 14.338C7.32566 14.314 7.04333 14.2271 6.85533 14.1541C6.60633 14.0574 6.42866 13.9419 6.24199 13.7552C6.05533 13.5685 5.93966 13.3912 5.843 13.1422C5.77 12.9544 5.68299 12.6722 5.65932 12.1522C5.63366 11.59 5.62866 11.4211 5.62866 9.99685C5.62866 8.57262 5.63366 8.40462 5.65932 7.84238C5.68299 7.32238 5.77 7.04015 5.843 6.85215C5.93966 6.60328 6.05533 6.42548 6.24199 6.23882C6.42866 6.05215 6.60633 5.93658 6.85533 5.83972C7.04333 5.76638 7.32566 5.67972 7.84566 5.65582C8.33766 5.63358 8.52833 5.62692 9.52233 5.62582V5.62715ZM12.8477 6.51268C12.4943 6.51268 12.2077 6.79902 12.2077 7.15245C12.2077 7.50578 12.4943 7.79245 12.8477 7.79245C13.201 7.79245 13.4877 7.50578 13.4877 7.15245C13.4877 6.79912 13.201 6.51245 12.8477 6.51245V6.51268ZM10.0007 7.26048C8.48833 7.26048 7.26199 8.48685 7.26199 9.99942C7.26199 11.512 8.48833 12.7378 10.0007 12.7378C11.5133 12.7378 12.7393 11.512 12.7393 9.99942C12.7393 8.48685 11.5133 7.26048 10.0007 7.26048ZM10.0007 8.22158C10.9827 8.22158 11.7787 9.01748 11.7787 9.99938C11.7787 10.9812 10.9827 11.7772 10.0007 11.7772C9.01899 11.7772 8.22299 10.9812 8.22299 9.99938C8.22299 9.01748 9.01899 8.22158 10.0007 8.22158Z" fill="black"/></g></svg>
