<svg width="140" height="60" viewBox="0 0 78 27" fill="none" xmlns="http://www.w3.org/2000/svg"><path d="M17.9525 10.3776L17.6797 8.39795L16.0746 9.62015L16.5317 9.80463L11.944 19.4644L11.4374 18.3974L15.3421 10.1767L15.8398 10.3776L15.5675 8.39795L13.9619 9.62015L14.3899 9.79233L10.8699 17.2029L10.3634 16.136L13.1794 10.2064L13.6032 10.3776L13.3304 8.39795L11.7253 9.62015L12.2272 9.82257L9.79642 14.9415L7.25266 9.58581H6.10156L9.2659 16.2308H9.27736L10.3472 18.4769H10.3587L11.428 20.7235H12.4807L17.4844 10.1885L17.9525 10.3776Z" fill="white"/><path d="M34.1376 9.79772L30.9134 17.1494H29.8736L26.6389 9.79772H27.7732L30.4198 15.8366L33.0874 9.79772H34.1376ZM41.7438 14.3978C41.7438 14.4748 41.7368 14.5763 41.7228 14.7023H37.2067C37.2697 15.1925 37.4833 15.5881 37.8474 15.8891C38.2184 16.1832 38.6771 16.3302 39.2232 16.3302C39.8883 16.3302 40.424 16.1062 40.83 15.6581L41.3867 16.3092C41.1346 16.6033 40.8195 16.8273 40.4415 16.9814C40.0704 17.1354 39.6538 17.2124 39.1917 17.2124C38.6035 17.2124 38.0819 17.0934 37.6268 16.8553C37.1717 16.6103 36.8181 16.2707 36.5661 15.8366C36.321 15.4025 36.1985 14.9124 36.1985 14.3663C36.1985 13.8271 36.3175 13.3405 36.5556 12.9064C36.8006 12.4723 37.1332 12.1363 37.5533 11.8982C37.9804 11.6531 38.46 11.5306 38.9921 11.5306C39.5242 11.5306 39.9969 11.6531 40.41 11.8982C40.83 12.1363 41.1556 12.4723 41.3867 12.9064C41.6247 13.3405 41.7438 13.8376 41.7438 14.3978ZM38.9921 12.3813C38.509 12.3813 38.1029 12.5283 37.7738 12.8224C37.4518 13.1165 37.2627 13.5016 37.2067 13.9777H40.7775C40.7215 13.5086 40.529 13.127 40.1999 12.8329C39.8778 12.5318 39.4752 12.3813 38.9921 12.3813ZM48.3215 11.5306C49.0286 11.5306 49.5888 11.7372 50.0019 12.1503C50.422 12.5564 50.632 13.155 50.632 13.9462V17.1494H49.6238V14.0617C49.6238 13.5226 49.4942 13.1165 49.2352 12.8434C48.9761 12.5704 48.605 12.4338 48.1219 12.4338C47.5758 12.4338 47.1452 12.5949 46.8301 12.9169C46.5151 13.232 46.3575 13.6871 46.3575 14.2823V17.1494H45.3493V11.5831H46.3155V12.4233C46.5186 12.1363 46.7916 11.9157 47.1347 11.7617C47.4848 11.6076 47.8804 11.5306 48.3215 11.5306ZM57.1603 17.2124C56.5931 17.2124 56.0855 17.0899 55.6374 16.8448C55.1963 16.5998 54.8497 16.2637 54.5977 15.8366C54.3456 15.4025 54.2196 14.9124 54.2196 14.3663C54.2196 13.8201 54.3456 13.3335 54.5977 12.9064C54.8497 12.4723 55.1963 12.1363 55.6374 11.8982C56.0855 11.6531 56.5931 11.5306 57.1603 11.5306C57.6644 11.5306 58.1125 11.6321 58.5046 11.8352C58.9037 12.0382 59.2117 12.3323 59.4288 12.7174L58.6621 13.211C58.4871 12.9449 58.27 12.7454 58.0109 12.6124C57.7519 12.4793 57.4648 12.4128 57.1497 12.4128C56.7857 12.4128 56.4566 12.4933 56.1625 12.6544C55.8755 12.8154 55.6479 13.0465 55.4799 13.3475C55.3188 13.6416 55.2383 13.9812 55.2383 14.3663C55.2383 14.7584 55.3188 15.1049 55.4799 15.406C55.6479 15.7001 55.8755 15.9276 56.1625 16.0887C56.4566 16.2497 56.7857 16.3302 57.1497 16.3302C57.4648 16.3302 57.7519 16.2637 58.0109 16.1307C58.27 15.9976 58.4871 15.7981 58.6621 15.532L59.4288 16.0152C59.2117 16.4002 58.9037 16.6978 58.5046 16.9079C58.1125 17.1109 57.6644 17.2124 57.1603 17.2124ZM63.9058 12.5178C64.0809 12.1958 64.3399 11.9507 64.683 11.7827C65.0261 11.6146 65.4427 11.5306 65.9328 11.5306V12.5073C65.8768 12.5003 65.7998 12.4968 65.7018 12.4968C65.1556 12.4968 64.725 12.6614 64.41 12.9905C64.1019 13.3125 63.9479 13.7746 63.9479 14.3768V17.1494H62.9396V11.5831H63.9058V12.5178ZM74.641 11.5831V17.1494H73.6852V16.3092C73.4822 16.5963 73.2126 16.8203 72.8766 16.9814C72.5475 17.1354 72.1869 17.2124 71.7948 17.2124C71.0526 17.2124 70.468 17.0094 70.0409 16.6033C69.6138 16.1902 69.4003 15.5846 69.4003 14.7864V11.5831H70.4085V14.6708C70.4085 15.21 70.538 15.6196 70.7971 15.8996C71.0561 16.1727 71.4272 16.3092 71.9103 16.3092C72.4425 16.3092 72.8626 16.1482 73.1706 15.8261C73.4787 15.504 73.6327 15.0489 73.6327 14.4608V11.5831H74.641Z" fill="white"/><path d="M22.9952 19.7496V7.24987L11.9976 1L1 7.24987V19.7496L11.9976 26L22.9952 19.7496Z" stroke="white" stroke-width="1.06817" stroke-miterlimit="10"/></svg>